<?xml version="1.0" encoding="UTF-8"?>
<!DOCTYPE svg PUBLIC "-//W3C//DTD SVG 1.1//EN" "http://www.w3.org/Graphics/SVG/1.1/DTD/svg11.dtd">
<!-- Creator: CorelDRAW X8 -->
<svg xmlns="http://www.w3.org/2000/svg" xml:space="preserve" width="80mm" height="65mm" version="1.1" style="shape-rendering:geometricPrecision; text-rendering:geometricPrecision; image-rendering:optimizeQuality; fill-rule:evenodd; clip-rule:evenodd"
viewBox="0 0 8000 6500"
 xmlns:xlink="http://www.w3.org/1999/xlink">
 <defs>
  <style type="text/css">
   <![CDATA[
    .str0 {stroke:#2B2A29;stroke-width:20.32}
    .fil1 {fill:#FEFEFE}
    .fil2 {fill:#2B2A29}
    .fil3 {fill:#E31E24}
    .fil0 {fill:#2B2A29;fill-rule:nonzero}
   ]]>
  </style>
 </defs>
 <g id="Warstwa_x0020_1">
  <metadata id="CorelCorpID_0Corel-Layer"/>
  <g id="_1624205078672">
   <path class="fil0" d="M6008 4238l-388 0 0 -181c0,-38 12,-68 36,-89 22,-20 51,-30 86,-30 37,0 66,8 87,25 26,20 39,53 39,97l0 96 140 0 0 82zm-206 -82l0 -77c0,-25 -6,-42 -19,-51 -7,-6 -20,-9 -38,-9 -19,0 -32,4 -40,11 -12,10 -17,30 -17,59l0 67 114 0z"/>
   <path class="fil0" d="M5835 3878l-14 0c-64,0 -114,-15 -150,-44 -40,-32 -60,-81 -60,-145 0,-52 15,-95 47,-128 36,-39 89,-58 159,-58 63,0 112,17 148,51 36,34 54,80 54,137 0,57 -18,103 -54,138 -34,33 -78,49 -130,49zm-30 -80c42,0 76,-8 101,-23 29,-18 44,-46 44,-84 0,-37 -14,-65 -44,-84 -23,-15 -52,-22 -84,-22 -48,0 -83,9 -107,28 -23,18 -35,45 -35,80 0,26 9,49 27,68 22,24 55,37 98,37z"/>
   <polygon class="fil0" points="6008,3425 5620,3425 5620,3343 5937,3343 5937,3149 6008,3149 "/>
   <polygon class="fil0" points="6008,3086 5620,3086 5620,3004 6008,3004 "/>
   <path class="fil0" d="M5813 2934c-59,0 -106,-15 -141,-46 -41,-34 -61,-83 -61,-148l0 -14c0,-45 14,-83 42,-114 26,-28 55,-43 88,-43l0 82c-13,2 -26,9 -39,23 -16,18 -25,39 -25,64 0,29 10,53 28,72 24,27 62,40 113,40 43,0 76,-9 98,-28 19,-16 31,-38 34,-67l0 -15c0,-25 -6,-45 -20,-62 -15,-18 -37,-30 -65,-36l0 90 -65 0 0 -163 208 0 0 55 -48 8c23,19 40,40 48,63 7,18 11,40 11,68 0,47 -18,86 -55,119 -38,35 -89,52 -151,52z"/>
   <path class="fil0" d="M6008 2480l-388 0 0 -198c0,-40 12,-71 35,-94 20,-19 45,-29 74,-29 22,0 41,5 58,16 17,11 29,26 36,46 6,-20 18,-34 34,-41 12,-6 29,-8 52,-8l16 0 6 0c3,0 7,0 12,0 16,0 29,-2 38,-4 9,-3 14,-8 16,-16l11 0 0 91c-9,3 -21,6 -36,7 -14,2 -35,3 -61,3 -19,0 -32,3 -39,8 -10,9 -15,26 -15,52l0 87 151 0 0 80zm-216 -80l0 -102c0,-21 -5,-36 -15,-45 -9,-8 -23,-12 -39,-12 -14,0 -25,3 -34,11 -11,10 -16,24 -16,44l0 104 104 0z"/>
   <path class="fil0" d="M6008 2104l-388 -139 0 -95 388 -138 0 90 -80 24 0 145 80 27 0 86zm-146 -135l0 -99 -154 49 154 50z"/>
   <polygon class="fil0" points="6008,1667 5620,1667 5620,1388 5689,1388 5689,1585 5777,1585 5777,1413 5845,1413 5845,1585 6008,1585 "/>
   <polygon class="fil0" points="6008,1328 5620,1328 5620,1246 6008,1246 "/>
   <path class="fil0" d="M6008 1189l-388 -140 0 -95 388 -137 0 89 -80 25 0 144 80 28 0 86zm-146 -135l0 -100 -154 49 154 51z"/>
   <polygon class="fil1" points="2300,4342 5055,3950 5246,5291 2491,5683 "/>
   <polygon class="fil1" points="2017,855 5412,855 5412,4196 2017,4196 "/>
   <path class="fil2" d="M3299 3429l-129 1 -2 727 2209 0 0 -3266 -1799 1c572,129 998,605 998,1260 -1,656 -574,1277 -1277,1277zm-1318 -2612l3467 0 0 3417 -3467 0 0 -3417z"/>
   <polygon class="fil2" points="2300,4342 5055,3950 5246,5291 2491,5683 "/>
   <polygon class="fil1 str0" points="2133,4196 4887,3804 5078,5146 2324,5538 "/>
   <path class="fil3" d="M3986 4484c4,-1 8,-3 11,-6 3,-3 6,-8 9,-14 4,-6 7,-10 9,-12 10,-15 17,-28 23,-38 1,-4 3,-6 6,-6 3,-1 6,0 10,2 3,2 8,5 14,8 6,4 11,7 16,9 5,2 9,3 13,3 6,-1 12,-4 20,-9 7,-6 13,-12 18,-20 4,-8 6,-16 5,-24 -1,-4 -2,-8 -3,-11 -1,-2 -3,-2 -6,-2 -8,12 -16,18 -23,19 -8,1 -16,-3 -23,-12 -9,-3 -14,-8 -15,-15 -1,-6 1,-12 5,-18 1,-4 4,-12 10,-22 5,-11 10,-21 13,-29 3,-8 4,-16 3,-22 -1,-5 -3,-10 -8,-14 -3,-3 -6,-4 -9,-3 -3,0 -6,2 -8,6 -2,4 -4,9 -5,15 -2,7 -2,10 -2,10 -3,6 -7,16 -13,30 -7,14 -11,24 -13,30 -8,2 -13,5 -16,9 -4,4 -6,8 -6,13 -1,4 -1,9 -1,15 1,5 1,9 0,10 -1,3 -4,10 -8,20 -3,11 -7,18 -9,23 -1,1 -2,2 -4,2 -2,1 -3,-1 -4,-5 -1,-7 0,-17 3,-29 0,-3 1,-17 5,-41 3,-24 4,-38 4,-42 2,-8 7,-28 14,-61 8,-33 13,-52 14,-59 6,-13 7,-26 5,-41 -2,-19 -11,-29 -26,-30 -8,1 -15,19 -20,52 -1,9 -4,19 -7,29 -4,11 -6,21 -8,31 0,5 -1,10 -3,16 -1,6 -3,14 -5,24 -2,9 -4,15 -4,16 -1,4 -4,16 -11,35 -7,19 -11,30 -11,34 -4,6 -8,13 -13,21 -5,8 -9,14 -11,18 0,0 1,2 2,6 1,3 1,6 2,9 0,1 0,6 -1,13l3 0c15,-17 25,-30 30,-41l2 -1c1,6 1,12 1,19 0,8 0,12 0,15 0,3 1,5 2,6 -3,12 -4,24 -2,35 2,18 11,26 26,24z"/>
   <path class="fil3" d="M3806 4469c14,9 28,12 43,10 5,-1 9,-2 14,-3 9,-2 18,-6 26,-11 9,-6 19,-14 30,-23 11,-9 19,-16 23,-18 3,-4 3,-12 1,-24 1,-1 1,-3 1,-5 -1,-4 -3,-6 -5,-5 -1,0 -3,1 -4,3 -5,8 -9,13 -14,15 -1,1 -3,3 -7,5 -3,3 -6,5 -8,6 -15,11 -29,17 -41,19 -4,0 -8,0 -13,-1 -6,-1 -10,-3 -14,-7 -4,-4 -6,-8 -7,-12 0,-3 0,-6 0,-7 3,-3 6,-6 9,-8 2,-2 5,-6 7,-10 10,-6 21,-17 31,-32 10,-15 15,-25 15,-28 5,-3 6,-9 5,-18 -1,-5 -2,-9 -4,-12 -2,-4 -4,-6 -6,-6 -8,-6 -16,-8 -26,-7 -6,1 -10,3 -14,5 -4,2 -7,5 -8,7 -8,6 -18,16 -30,32 -4,1 -7,7 -11,16 -4,9 -6,14 -7,15 -9,28 -13,44 -12,49 2,14 5,24 8,30 4,7 7,12 11,16 4,4 6,7 7,9zm47 -130c1,1 2,2 3,4 0,4 -1,7 -2,10 -2,2 -3,4 -3,5 -1,2 -2,3 -3,5 -2,1 -3,2 -5,3 -1,2 -3,4 -5,6 -3,3 -6,5 -9,6 -2,-1 -3,-1 -3,-3 0,-2 0,-6 3,-10 2,-5 6,-11 11,-17 6,-5 10,-8 13,-9z"/>
   <path class="fil3" d="M3637 4470c7,-5 20,-20 38,-46 10,-15 18,-22 23,-23 2,0 4,1 6,4 1,3 3,6 4,11 1,4 2,9 3,14 -1,3 -1,16 0,41 0,24 -1,39 -3,44 -7,12 -17,31 -28,58 -11,27 -16,46 -14,56 -3,5 -4,11 -3,18 0,2 1,5 2,10 1,4 2,8 2,11 1,4 2,6 5,7 3,1 7,1 13,0 7,-1 13,-4 16,-9 3,-4 7,-12 11,-26 11,-22 18,-42 19,-60 2,-15 5,-30 9,-44 3,-15 6,-25 9,-29 6,-6 11,-11 14,-16 4,-5 7,-10 10,-15 14,-12 22,-22 25,-32 3,-5 5,-9 8,-13 0,0 -1,-2 -3,-5 -1,-4 -2,-7 -3,-10 0,-1 0,-2 0,-3 0,-2 0,-3 0,-4 0,-2 -1,-4 -2,-5 -3,1 -5,2 -7,5 -2,3 -4,7 -6,13 -2,6 -3,9 -4,9 -2,2 -7,7 -13,14 -7,8 -11,13 -14,15 -3,1 -5,0 -6,-2 1,-37 2,-59 3,-66 1,-10 0,-25 -3,-47l-3 -25c-7,-4 -12,-5 -17,-5 -4,1 -8,3 -12,7 -3,3 -7,9 -11,16 -4,7 -8,11 -11,14 -3,5 -7,11 -12,18 -4,6 -7,11 -8,13 -1,1 -4,6 -10,14 -6,8 -13,17 -20,26 -9,8 -13,14 -12,18 0,5 1,10 2,16 2,6 2,10 3,13z"/>
   <path class="fil3" d="M3763 4222c3,-9 4,-20 3,-32 -3,-4 -7,-5 -13,-4 -5,0 -10,2 -14,6 -5,3 -9,7 -11,12 -6,4 -10,8 -13,10 -3,3 -5,7 -8,12 -3,5 -4,10 -3,16 1,6 4,12 9,18 2,1 4,1 6,2 3,0 5,0 7,-1 2,0 5,0 9,0 9,-7 16,-13 20,-19 5,-5 7,-12 8,-20z"/>
   <path class="fil3" d="M3605 4504c2,0 7,-4 14,-10 7,-7 11,-10 14,-12 1,-1 4,-4 10,-9 6,-4 10,-8 13,-12 3,-4 4,-8 4,-13 -1,0 -2,-2 -3,-6 -2,-3 -3,-6 -5,-8 -1,-2 -3,-2 -4,-2 -3,4 -8,10 -15,17 -2,6 -5,12 -10,16 -5,5 -8,9 -10,13 -3,2 -6,6 -9,11 -3,4 -4,8 -4,11 1,2 2,3 5,4z"/>
   <path class="fil3" d="M3487 4528c1,2 3,4 6,4 3,1 6,1 10,1 4,0 9,0 13,0 13,-3 23,-7 32,-12 8,-5 16,-12 22,-19 6,-7 11,-14 16,-20 1,-3 4,-7 8,-11 3,-5 6,-7 6,-8 0,-2 3,-7 7,-14 4,-8 7,-14 8,-19 2,-7 3,-18 2,-33 0,-4 -1,-7 -2,-10 -1,-3 -3,-6 -4,-8 -1,-2 -2,-5 -3,-7 -9,-9 -21,-12 -35,-10 -9,1 -19,5 -29,11 -1,0 -1,-1 -1,-1 -1,-1 0,-3 2,-6 2,-4 2,-6 2,-7 0,-2 -2,-3 -5,-4 0,0 -2,0 -5,0 -4,0 -6,0 -8,1 -3,0 -5,1 -7,2 -6,8 -12,14 -16,20 -5,6 -8,10 -10,12 -4,1 -6,2 -8,4 -1,2 -3,6 -6,13 -6,4 -25,24 -55,61l1 9c2,1 3,2 3,5 1,1 1,3 1,7 0,3 0,6 1,8 1,0 3,-1 5,-4 2,-2 5,-5 9,-10 3,-4 6,-7 9,-10 3,-2 6,-3 9,-4 1,5 0,14 -2,27 3,20 11,31 24,32zm89 -74c-9,13 -16,22 -24,28 -10,10 -20,15 -27,16 -8,2 -13,-4 -15,-18 -1,-4 0,-10 2,-18 2,-7 5,-14 9,-20 4,-1 7,-2 9,-5 2,-2 5,-6 8,-11 2,-4 4,-8 6,-10 5,-4 11,-7 17,-8 5,0 10,1 14,4 4,3 6,7 7,12 0,3 0,7 -2,12 -2,4 -3,8 -3,12 -1,4 -1,6 -1,6z"/>
   <path class="fil3" d="M3270 4515c2,0 4,-1 7,-4 3,-3 6,-7 9,-12 12,-14 18,-23 19,-27 14,-20 23,-31 30,-32 4,0 8,2 11,7 5,6 7,12 8,19 1,7 0,26 -3,58 -5,12 -7,21 -6,28 1,9 9,13 24,10 3,0 6,-1 8,-3 3,-2 8,-5 16,-11 7,-5 12,-8 15,-9 2,-3 9,-9 20,-20 11,-10 17,-16 20,-16 -1,-2 0,-6 3,-10 3,-4 4,-7 4,-7 -1,-7 -3,-12 -6,-15 0,-5 -2,-8 -3,-8 -2,0 -3,2 -5,5 -2,5 -9,12 -21,24 -12,11 -19,17 -22,17 -2,2 -4,3 -4,3 -2,0 -3,-1 -3,-3 -1,-3 1,-11 4,-25 3,-15 5,-25 4,-32 -1,-8 -3,-14 -5,-19 -2,-6 -4,-10 -7,-14 -2,-4 -5,-7 -7,-9 -2,-2 -4,-4 -7,-7 -1,-1 -3,-3 -8,-7 -5,-3 -9,-6 -13,-7 -4,-2 -9,-3 -16,-3 -11,2 -21,9 -31,21 -6,3 -9,6 -8,10 0,2 2,6 4,12 -3,2 -5,6 -7,11 -2,5 -4,8 -5,8 -1,5 -10,20 -24,44 1,6 2,11 3,16 2,5 2,8 2,7z"/>
   <path class="fil3" d="M3134 4717c5,-11 7,-20 7,-28 5,-13 9,-29 10,-48 0,-3 2,-8 4,-17 2,-8 4,-15 5,-21 2,-6 2,-12 2,-19 2,-3 4,-8 6,-14 2,-5 4,-13 7,-22 2,-9 4,-13 4,-14 2,-12 6,-18 11,-19 2,0 4,0 6,2 2,1 5,3 9,6 3,2 6,4 7,5 13,9 25,14 35,12 6,-1 12,-3 18,-7 6,-4 14,-10 23,-18 0,-3 -1,-8 -1,-16 -1,-9 -2,-13 -4,-12 -2,0 -5,2 -10,7 -5,4 -9,7 -13,7 -7,1 -14,-2 -22,-8 -3,-6 -13,-16 -29,-31 -3,-4 -9,-5 -17,-4 -11,1 -18,8 -21,19 -5,9 -8,17 -10,24 -2,6 -6,20 -12,40 -2,15 -4,29 -7,40 -3,10 -4,17 -5,18 -1,5 -3,14 -4,27 -2,13 -4,20 -7,22 0,-8 1,-22 3,-40 2,-19 3,-29 3,-30 1,-6 3,-19 6,-38 4,-20 6,-35 7,-45 1,-5 3,-13 6,-24 3,-11 5,-20 6,-27 2,-9 3,-14 5,-16 0,-9 2,-19 7,-32 2,-6 2,-13 1,-21 -1,-6 -2,-11 -5,-15 -2,-4 -4,-6 -7,-6 -1,1 -3,2 -5,3 -1,2 -3,4 -5,7 -1,3 -3,5 -4,6 -1,4 -2,8 -4,13 -1,4 -2,9 -4,14 -2,4 -4,8 -6,11 -1,6 -3,11 -5,16 -3,5 -6,11 -10,19 -4,8 -8,15 -10,19 0,1 -2,5 -6,12 -3,7 -6,14 -7,19 -1,3 -3,6 -6,9 -2,3 -5,6 -8,9 -3,3 -5,5 -6,7 1,8 1,13 0,15 1,1 2,3 2,5 0,1 0,2 0,4 0,1 0,3 0,3 0,1 1,2 2,3 2,0 4,-1 5,-3 1,-1 3,-3 4,-6 2,-3 4,-6 5,-8 2,-2 4,-3 7,-5 1,5 2,16 2,33 -1,4 -1,7 -2,11 0,3 0,6 -1,7 0,2 0,3 1,5 0,40 -1,66 -2,76 0,-2 0,3 1,16 1,12 3,25 5,41 2,15 8,22 18,21 9,-1 14,-8 15,-19z"/>
   <path class="fil3" d="M2764 4636c4,-3 15,-15 33,-36 2,-3 6,-8 11,-16 6,-8 11,-15 15,-21 2,-6 5,-13 9,-20 4,-7 8,-10 12,-11 1,1 2,4 3,9 2,6 4,10 7,13 2,8 7,15 14,20 7,6 13,10 19,12 6,1 13,1 22,0 11,-2 21,-5 30,-10 10,-6 17,-12 22,-19 1,-8 1,-15 0,-23 0,-4 -2,-6 -5,-6 -12,10 -23,15 -33,16 -9,1 -16,0 -21,-5 -12,-11 -20,-29 -23,-53 -2,-7 -1,-20 2,-38 5,-10 8,-19 7,-26 4,-6 6,-13 7,-21 8,-15 11,-28 9,-39 0,-1 2,-5 4,-12 2,-7 4,-13 5,-18 1,-5 1,-10 1,-14 2,-6 3,-16 3,-30 -2,-16 -7,-24 -13,-23 -6,1 -12,5 -17,12 -6,8 -10,16 -12,26 -9,15 -16,34 -23,58 -1,2 -3,13 -7,33 -3,20 -6,31 -9,35 -3,0 -7,1 -9,3 -3,2 -8,6 -15,12 -22,24 -35,40 -39,48 -4,2 -8,6 -13,12 -5,6 -10,13 -16,22 -6,9 -10,14 -11,16 -4,3 -9,7 -14,12 -5,5 -9,9 -12,12 -2,2 -2,5 -2,8 1,2 2,5 4,9 0,1 0,3 -2,5 -1,3 -2,6 -1,9 1,1 2,2 3,2 1,0 3,-2 6,-5 3,-3 6,-5 9,-5 -5,20 -7,34 -5,43 1,7 3,11 8,12 5,2 11,2 18,1 9,-1 15,-4 19,-9zm51 -110c-25,40 -41,61 -47,62 -1,-9 4,-24 15,-46 11,-23 20,-37 26,-42 5,-10 13,-21 26,-31 1,5 1,8 1,9 -1,1 0,4 0,9 0,0 -3,7 -10,19 -6,13 -10,20 -11,20z"/>
   <path class="fil3" d="M2604 4638c13,-15 24,-28 33,-40 9,-11 19,-26 29,-42 9,-17 17,-36 22,-57 6,-20 7,-41 4,-62 -1,-7 -2,-12 -3,-15 -3,-15 -10,-29 -19,-41 -8,-13 -17,-23 -25,-30 -14,-10 -26,-17 -36,-22 -9,-4 -21,-6 -34,-6 -2,1 -4,2 -7,4 -2,2 -5,4 -6,4 -3,1 -6,2 -8,3 -3,0 -5,1 -8,3 -2,1 -5,3 -8,6 -2,3 -5,6 -7,11 -14,9 -22,16 -24,22 -1,1 -2,2 -3,4 -2,2 -3,2 -4,3 -1,0 -2,-1 -2,-3 -1,-2 -1,-4 0,-8 4,-10 6,-18 5,-24 -1,-7 -4,-10 -11,-9 -1,1 -3,2 -4,4 -2,2 -5,4 -9,8 -4,7 -7,14 -9,21 -3,7 -5,15 -8,24 -3,9 -5,18 -8,27 -1,14 -3,25 -6,32 -2,8 -5,17 -10,28 -5,10 -8,19 -11,28 -3,4 -5,8 -5,12 -1,4 -1,9 -1,15 0,6 0,9 0,11 1,3 3,5 7,4 6,-1 9,-5 9,-11 0,-2 0,-4 2,-4 1,0 1,0 2,1 2,6 3,12 4,17 0,1 -1,2 -2,5 -1,2 -2,4 -1,6 -1,15 0,28 1,37 4,26 12,46 25,61 13,14 31,20 53,18 7,-1 13,-3 20,-5 6,-3 13,-6 23,-11 9,-4 16,-7 20,-9 10,-12 17,-18 20,-20zm-3 -40c-21,24 -40,37 -57,39 -20,3 -36,-9 -48,-36 -2,-7 -5,-16 -6,-27 -1,-4 -1,-9 -2,-16 -1,-6 -2,-11 -2,-15 -2,-11 -2,-23 -2,-34 1,-10 2,-23 3,-37 2,-15 3,-24 3,-28 8,-14 13,-23 17,-28 3,-5 9,-10 18,-16 8,-5 19,-11 35,-17 16,-2 30,0 43,8 12,7 23,18 30,32 8,13 13,29 16,45 2,15 2,30 -1,43 -2,2 -4,8 -6,18 -2,9 -6,18 -11,29 -6,11 -16,24 -30,40z"/>
   <path class="fil3" d="M4751 4354c8,-2 16,-6 23,-12 4,0 8,-4 13,-10 5,-6 8,-10 7,-12 0,-5 -3,-10 -9,-14 -6,-4 -13,-6 -24,-5 -2,-1 -4,-1 -6,-1 -4,1 -7,3 -11,9 -3,5 -5,7 -6,7 -8,10 -12,17 -11,23 0,3 2,6 6,8 3,2 9,4 18,7z"/>
   <path class="fil3" d="M4666 4366c9,-2 17,-6 24,-12 3,0 8,-4 13,-10 5,-6 7,-10 7,-12 -1,-5 -4,-10 -9,-14 -6,-4 -14,-6 -24,-5 -2,-1 -4,-1 -7,-1 -3,1 -7,3 -10,9 -4,5 -6,7 -6,7 -9,10 -12,17 -12,23 1,4 3,6 6,8 4,2 10,5 18,7z"/>
   <path class="fil3" d="M4582 4378c8,-2 16,-6 23,-12 4,0 8,-4 13,-10 6,-6 8,-10 8,-12 -1,-5 -4,-10 -10,-14 -5,-4 -13,-6 -23,-5 -2,-1 -5,-1 -7,-1 -4,1 -7,3 -11,9 -3,5 -5,7 -6,7 -8,10 -12,17 -11,23 0,3 2,6 6,8 4,2 10,4 18,7z"/>
   <path class="fil3" d="M4320 4413c8,2 14,3 19,2 5,0 10,-2 17,-6 8,-6 17,-15 27,-29 11,-13 19,-26 26,-39 1,-1 2,-2 3,-2 1,0 3,3 7,10 4,7 8,13 14,17 6,5 15,6 26,5 6,-1 11,-3 15,-5 4,-2 9,-5 14,-9 6,-5 10,-8 13,-10 6,-2 8,-10 7,-22 -2,-12 -4,-17 -7,-17 -1,1 -3,3 -7,7 -4,4 -7,7 -10,10 -4,2 -7,4 -10,4 -8,1 -15,-6 -20,-23 1,0 1,-3 0,-10 -3,-16 -10,-23 -23,-21 -6,1 -10,4 -14,9 -4,5 -9,12 -14,22 -5,10 -9,17 -12,21 -1,3 -5,9 -12,18 -6,8 -10,14 -11,17 -3,1 -6,4 -9,7 -3,3 -5,5 -7,5 0,0 -1,0 -2,0 -3,-4 -6,-11 -7,-21 -3,-18 -2,-35 2,-50 -1,-2 0,-6 1,-11 1,-6 2,-11 4,-16 1,-5 2,-10 3,-14 0,-4 0,-7 0,-11 0,-2 -2,-5 -4,-7 -2,-1 -4,-2 -7,-1 -7,1 -14,6 -23,14 -21,42 -40,71 -55,87 -6,5 -8,13 -6,25 1,8 3,12 4,12 2,0 4,-2 8,-7 4,-4 6,-6 6,-6 0,-1 2,-3 5,-7 4,-3 6,-6 7,-8 1,-1 2,-1 3,-1 2,-1 4,1 5,4 1,3 2,10 4,20 2,10 5,18 8,24 3,6 7,10 12,13z"/>
   <path class="fil3" d="M4177 4424c2,15 6,23 11,22 3,0 6,2 9,4 4,1 7,3 10,3 5,-1 19,-14 41,-41 3,-2 7,-6 12,-13 6,-7 9,-11 10,-12 3,-3 6,-6 8,-9 3,-3 5,-5 6,-8 2,-2 2,-4 2,-7l-3 -22c-1,-1 -3,-2 -4,-2 -1,0 -3,2 -6,6 -4,5 -8,9 -12,12 -9,10 -16,18 -20,22 -5,5 -10,9 -16,12 -3,1 -4,-2 -5,-8 -2,-14 -2,-31 1,-49 -1,-4 0,-12 2,-22 2,-11 3,-18 3,-21 1,-4 3,-13 5,-29 3,-16 4,-24 5,-26 1,-1 5,-3 12,-5 8,-2 11,-5 11,-8 -2,-12 -3,-22 -3,-32 0,-2 -2,-3 -5,-4 -3,-1 -5,-3 -5,-6 0,-1 1,-3 2,-8 1,-5 2,-9 3,-12 0,-3 0,-6 -1,-9 0,-5 -2,-9 -6,-11 -4,-2 -8,-3 -13,-2 -5,2 -8,6 -11,11 -2,4 -4,10 -6,18 -3,9 -5,14 -7,18 -3,4 -6,7 -11,8 -3,0 -5,0 -7,0 -3,1 -6,1 -9,2 -2,0 -7,0 -13,1 -6,0 -12,1 -16,1 -4,1 -8,2 -11,3 -11,1 -18,1 -22,1 -6,1 -11,3 -13,5 -4,4 -5,11 -3,24l1 10c2,5 10,7 23,6 1,-1 3,-2 4,-2 1,0 5,0 10,0 5,0 9,-1 12,-1 3,0 6,-1 11,-2 5,-1 8,-1 10,-2 10,-1 15,0 15,4 -2,4 -5,11 -9,21 -4,9 -8,18 -11,24 -4,7 -7,12 -10,16 -3,9 -10,21 -19,35 -10,14 -18,24 -24,30 0,3 0,6 0,11 1,4 2,8 3,13 2,4 3,7 3,8 22,-23 41,-48 57,-74 0,0 0,0 2,0 1,0 1,1 1,1l0 2c-4,9 -5,27 -5,54 -2,6 -2,19 1,39z"/>
   <path class="fil2" d="M2502 5180l124 -17c31,-5 57,-16 79,-34 22,-19 37,-45 46,-79 9,-34 10,-76 3,-126 -4,-31 -13,-59 -25,-83 -13,-24 -29,-44 -49,-60 -19,-16 -42,-27 -68,-33 -26,-7 -54,-8 -85,-4l-85 13 19 137 41 286zm97 -117l-31 -216c20,-3 36,5 50,25 13,20 22,45 26,75 5,29 3,55 -3,78 -6,23 -18,36 -34,38 -2,0 -4,0 -8,0zm289 -149c-4,-25 -5,-46 -3,-64 2,-17 6,-31 12,-41 6,-10 13,-15 21,-16 7,-1 15,2 23,10 8,7 15,19 22,36 6,17 11,37 15,62 2,24 3,45 1,63 -2,17 -6,31 -11,40 -5,10 -12,15 -19,16 -12,2 -23,-7 -35,-25 -11,-19 -20,-46 -26,-81zm-111 16c7,38 19,73 36,104 17,32 38,56 63,72 26,17 52,23 81,19 51,-7 87,-32 109,-74 22,-41 28,-101 17,-178 -4,-28 -11,-53 -21,-77 -9,-24 -22,-45 -38,-63 -16,-17 -34,-30 -56,-39 -22,-8 -46,-10 -73,-6 -21,3 -40,10 -56,22 -17,12 -31,28 -42,49 -11,21 -19,46 -22,74 -4,29 -4,61 2,97zm554 132l124 -17c31,-5 57,-16 79,-34 22,-19 37,-45 46,-79 9,-34 10,-76 3,-126 -4,-31 -13,-59 -25,-83 -13,-24 -29,-44 -48,-60 -20,-16 -43,-27 -69,-33 -26,-7 -54,-8 -84,-4l-86 13 19 137 41 286zm97 -117l-31 -216c20,-3 36,5 50,25 13,20 22,45 26,75 5,29 4,55 -3,78 -6,23 -18,36 -34,38 -2,0 -4,0 -8,0zm220 72l111 -16 -24 -171 84 163 121 -17 -108 -165c13,-2 24,-9 33,-21 10,-13 16,-28 19,-47 3,-19 4,-38 1,-57 -17,-87 -82,-123 -195,-107l-102 14 19 138 41 286zm79 -241l-15 -106c19,-3 33,0 43,8 11,9 17,20 19,34 1,10 1,19 -2,28 -3,10 -9,18 -16,24 -8,7 -17,11 -29,12zm169 -226l2 14 41 286c4,28 13,50 28,69 15,18 33,31 56,38 23,7 48,9 76,5 23,-3 44,-11 63,-24 18,-13 32,-33 41,-59 9,-26 11,-59 5,-99l-38 -269 -112 16 2 9 40 287c2,10 0,18 -4,25 -4,6 -9,10 -16,11 -7,1 -14,-1 -20,-6 -5,-5 -9,-13 -11,-23l-1 -10 -41 -286 -111 16zm377 378l116 -16 -27 -190 95 180 120 -17 -129 -202 60 -221 -124 18 -30 185 -25 -177 -116 17 20 137 40 286zm265 -470l2 14 41 287c4,27 13,50 28,68 15,18 34,31 57,39 23,7 48,9 75,5 24,-3 45,-12 63,-25 19,-12 33,-32 42,-58 9,-26 11,-59 5,-99l-39 -270 -111 16 1 10 41 286c1,11 0,19 -4,25 -4,7 -10,10 -17,11 -7,1 -13,-1 -19,-6 -6,-5 -10,-12 -11,-23l-1 -9 -41 -287 -112 16z"/>
  </g>
 </g>
</svg>
