<?xml version="1.0" encoding="UTF-8"?>
<!DOCTYPE svg PUBLIC "-//W3C//DTD SVG 1.1//EN" "http://www.w3.org/Graphics/SVG/1.1/DTD/svg11.dtd">
<!-- Creator: CorelDRAW X8 -->
<svg xmlns="http://www.w3.org/2000/svg" xml:space="preserve" width="80mm" height="65mm" version="1.1" style="shape-rendering:geometricPrecision; text-rendering:geometricPrecision; image-rendering:optimizeQuality; fill-rule:evenodd; clip-rule:evenodd"
viewBox="0 0 8000 6500"
 xmlns:xlink="http://www.w3.org/1999/xlink">
 <defs>
  <style type="text/css">
   <![CDATA[
    .fil1 {fill:#FEFEFE}
    .fil2 {fill:#2B2A29}
    .fil3 {fill:#2B2A29}
    .fil0 {fill:#2B2A29;fill-rule:nonzero}
   ]]>
  </style>
 </defs>
 <g id="Warstwa_x0020_1">
  <metadata id="CorelCorpID_0Corel-Layer"/>
  <g id="_1624205082512">
   <path class="fil0" d="M6008 4957l-388 0 0 -181c0,-38 12,-68 36,-90 22,-20 51,-30 86,-30 37,0 66,9 87,26 26,20 39,52 39,97l0 95 140 0 0 83zm-206 -83l0 -76c0,-25 -6,-42 -19,-51 -7,-6 -20,-9 -38,-9 -19,0 -32,4 -40,10 -12,11 -17,30 -17,59l0 67 114 0z"/>
   <path class="fil0" d="M5835 4593l-14 0c-64,0 -114,-15 -150,-44 -40,-32 -60,-81 -60,-145 0,-52 15,-95 47,-128 36,-39 89,-58 159,-58 63,0 112,17 148,51 36,34 54,80 54,137 0,57 -18,103 -54,138 -34,33 -78,49 -130,49zm-30 -80c42,0 76,-8 101,-23 29,-18 44,-46 44,-84 0,-37 -14,-65 -44,-84 -23,-15 -52,-22 -84,-22 -48,0 -83,9 -107,28 -23,18 -35,45 -35,80 0,26 9,49 27,68 22,24 55,37 98,37z"/>
   <polygon class="fil0" points="6008,4148 5620,4148 5620,4066 5937,4066 5937,3871 6008,3871 "/>
   <polygon class="fil0" points="6008,3809 5620,3809 5620,3727 6008,3727 "/>
   <path class="fil0" d="M5813 3657c-59,0 -106,-15 -141,-46 -41,-34 -61,-84 -61,-148l0 -14c0,-45 14,-83 42,-114 26,-29 55,-43 88,-43l0 82c-13,2 -26,9 -39,23 -16,18 -25,39 -25,64 0,28 10,52 28,72 24,27 62,40 113,40 43,0 76,-9 98,-28 19,-16 31,-39 34,-68l0 -14c0,-25 -6,-45 -20,-62 -15,-18 -37,-30 -65,-37l0 91 -65 0 0 -163 208 0 0 54 -48 9c23,19 40,40 48,63 7,17 11,40 11,68 0,46 -18,86 -55,119 -38,35 -89,52 -151,52z"/>
   <path class="fil0" d="M6008 3203l-388 0 0 -199c0,-40 12,-71 35,-93 20,-20 45,-29 74,-29 22,0 41,5 58,16 17,11 29,26 36,45 6,-20 18,-33 34,-41 12,-5 29,-8 52,-8l16 0 6 0c3,0 7,0 12,0 16,0 29,-1 38,-4 9,-2 14,-7 16,-15l11 0 0 91c-9,3 -21,5 -36,7 -14,2 -35,2 -61,2 -19,0 -32,3 -39,9 -10,8 -15,26 -15,52l0 87 151 0 0 80zm-216 -80l0 -102c0,-21 -5,-36 -15,-45 -9,-8 -23,-13 -39,-13 -14,0 -25,4 -34,12 -11,9 -16,24 -16,44l0 104 104 0z"/>
   <path class="fil0" d="M6008 2827l-388 -139 0 -96 388 -137 0 89 -80 25 0 144 80 28 0 86zm-146 -135l0 -100 -154 49 154 51z"/>
   <polygon class="fil0" points="6008,2390 5620,2390 5620,2111 5689,2111 5689,2308 5777,2308 5777,2136 5845,2136 5845,2308 6008,2308 "/>
   <polygon class="fil0" points="6008,2051 5620,2051 5620,1969 6008,1969 "/>
   <path class="fil0" d="M6008 1912l-388 -140 0 -95 388 -138 0 90 -80 24 0 145 80 27 0 87zm-146 -136l0 -99 -154 49 154 50z"/>
   <polygon class="fil1" points="2017,1578 5412,1578 5412,4918 2017,4918 "/>
   <path class="fil2" d="M3299 4152l-129 1 -2 727 2209 0 0 -3266 -1799 1c572,129 998,605 998,1260 -1,655 -574,1277 -1277,1277zm-1318 -2612l3467 0 0 3417 -3467 0 0 -3417z"/>
  </g>
  <g id="_1624205081936">
   <path class="fil3" d="M6459 1543c146,0 264,118 264,264 0,146 -118,265 -264,265 -146,0 -264,-119 -264,-265 0,-146 118,-264 264,-264zm0 66c110,0 198,89 198,198 0,110 -88,198 -198,198 -109,0 -198,-88 -198,-198 0,-109 89,-198 198,-198z"/>
   <path class="fil0" d="M6368 1917l0 -235 100 0c25,0 44,2 55,6 11,4 21,12 27,22 7,11 11,24 11,38 0,17 -5,32 -16,43 -10,12 -26,19 -46,22 10,6 18,13 25,20 7,7 16,20 27,38l29 46 -57 0 -34 -51c-12,-18 -21,-30 -25,-35 -5,-4 -10,-8 -15,-10 -5,-1 -13,-2 -24,-2l-9 0 0 98 -48 0zm48 -136l35 0c23,0 37,-1 43,-3 5,-2 10,-5 13,-10 3,-4 5,-10 5,-17 0,-8 -2,-15 -7,-20 -4,-4 -10,-8 -18,-9 -3,0 -15,-1 -34,-1l-37 0 0 60z"/>
  </g>
 </g>
</svg>
